<?xml version="1.0" ?><svg viewBox="0 0 64 64" xmlns="http://www.w3.org/2000/svg"><g id="Glyph"><g data-name="Glyph" id="Glyph-2"><path d="M58.4,21.83,53,18.3V5a3,3,0,0,0-3-3H14a3,3,0,0,0-3,3V18.3L5.54,21.88A9,9,0,0,0,2,29.05V53a9.06,9.06,0,0,0,9.05,9H53a9.06,9.06,0,0,0,9-9V29.05A9,9,0,0,0,58.4,21.83ZM53,27.75l4.53-4a6.54,6.54,0,0,1,1.33,1.5L53,30.42Zm-46.54-4,4.54,4v2.68L5.14,25.21A6.74,6.74,0,0,1,6.46,23.71ZM5.57,57.38a6.7,6.7,0,0,1-1-1.75l15.82-14.2,1.5,1.33ZM37.78,38.84a8.72,8.72,0,0,0-11.56,0l-2.9,2.56L13,32.21V5a1,1,0,0,1,1-1H50a1,1,0,0,1,1,1V32.21L40.73,41.36ZM58.66,57.06,42.21,42.71l1.51-1.34L59.61,55.23A6,6,0,0,1,58.66,57.06Z"/><path d="M35.5,20.5v8a3.5,3.5,0,0,1-7,0v-8a3.5,3.5,0,0,1,7,0Z"/><circle cx="32" cy="11.5" r="3.5"/></g></g></svg>