<svg width="70" height="70" viewBox="0 0 70 70" fill="none" xmlns="http://www.w3.org/2000/svg">
<g clip-path="url(#clip0_343_2695)">
<rect width="70" height="70" fill="white"/>
<g clip-path="url(#clip1_343_2695)">
<mask id="mask0_343_2695" style="mask-type:luminance" maskUnits="userSpaceOnUse" x="0" y="0" width="70" height="70">
<path d="M70 0H0V70H70V0Z" fill="white"/>
</mask>
<g mask="url(#mask0_343_2695)">
<path d="M29.4463 46.3464L33.588 42.2047C25.6255 35.1172 20.4046 30.3339 20.4046 25.784C20.4046 22.7215 22.738 20.3882 25.8005 20.3882C29.038 20.3882 30.2921 22.284 33.6171 26.2215H36.3296C39.5963 22.4007 40.7921 20.3882 44.1463 20.3882C46.6838 20.3882 48.6671 21.9632 49.3088 24.2382C50.3296 24.1215 51.2921 24.0632 52.2255 24.0632C53.2755 24.0632 54.2671 24.1507 55.2296 24.2965C54.5296 18.7257 49.9505 14.5548 44.1755 14.5548C43.8255 14.5548 43.5046 14.6423 43.1546 14.6715C43.5046 13.709 43.738 12.7173 43.738 11.6382C43.738 6.79651 39.8296 2.88818 34.988 2.88818C30.1463 2.88818 26.238 6.79651 26.238 11.6382C26.238 12.7173 26.4713 13.709 26.8213 14.6715C26.4713 14.6423 26.1505 14.5548 25.8005 14.5548C19.5005 14.5548 14.5713 19.484 14.5713 25.784C14.5713 32.8423 20.5213 38.3547 29.4463 46.3464Z" fill="#DDA5FF" fill-opacity="0.6"/>
<path d="M65.6136 47.3381C64.6803 46.8131 63.6886 46.4922 62.6969 46.3172C62.9011 46.0256 63.1344 45.7922 63.3094 45.5006C66.4594 40.0464 64.6511 33.3089 59.1969 30.1589C53.1011 26.6298 45.3136 29.0215 33.9678 32.7839L35.4844 38.4422C45.6053 35.1172 52.3719 32.9589 56.3094 35.2339C58.9636 36.7797 59.8094 39.9297 58.2928 42.6131C56.6594 45.4131 54.4136 45.5297 49.3386 46.4631L47.9678 48.8256C49.6594 53.5506 50.7969 55.6214 49.1053 58.5089C47.5594 61.1631 44.4094 62.0089 41.7261 60.4922C41.5511 60.4047 41.4053 60.2298 41.2303 60.1131C40.3553 62.0673 39.3636 63.7297 38.2261 65.1589C38.4303 65.2756 38.6053 65.4214 38.8094 65.5672C44.2636 68.7172 51.0011 66.9089 54.1511 61.4547C54.3261 61.1631 54.4136 60.8422 54.5594 60.5214C55.2011 61.3089 55.9594 62.0089 56.8928 62.5339C61.0636 64.9548 66.4303 63.5256 68.8511 59.3256C71.2719 55.1256 69.7844 49.7297 65.6136 47.3381Z" fill="#DDA5FF" fill-opacity="0.6"/>
<path d="M35.9218 40.8339C33.7635 51.2756 32.2176 58.1881 28.2801 60.4631C25.626 62.0089 22.4468 61.1631 20.901 58.4797C19.2676 55.6797 20.3176 53.6381 22.0385 48.7964L20.6968 46.4339C15.7385 45.5297 13.4051 45.4714 11.7426 42.5839C10.1968 39.9297 11.0426 36.7506 13.726 35.2047C13.9885 35.0589 14.2801 34.9714 14.5718 34.8839C13.551 33.2506 12.7051 31.4714 12.1801 29.4881C11.7135 29.6922 11.2468 29.8964 10.7801 30.1589C5.32597 33.3089 3.51764 40.0464 6.66764 45.5006C6.84264 45.7922 7.07597 46.0256 7.28014 46.3172C6.28847 46.4922 5.2968 46.8131 4.36347 47.3381C0.192648 49.7589 -1.26569 55.0964 1.15515 59.2964C3.57597 63.4964 8.91347 64.9256 13.1135 62.5047C14.0468 61.9797 14.8051 61.2797 15.4468 60.4922C15.5926 60.8131 15.6801 61.1339 15.8551 61.4256C19.0051 66.8797 25.7426 68.6881 31.1968 65.5381C37.2926 62.0089 39.101 54.0756 41.551 42.3797L35.9218 40.8339Z" fill="#DDA5FF" fill-opacity="0.6"/>
</g>
</g>
<g filter="url(#filter0_d_343_2695)">
<path d="M17.4794 18.8V20H16.4554L13.1114 30H11.7034L8.37544 19.984C7.2661 20.1013 6.47677 20.336 6.00744 20.688C5.5381 21.0293 5.30344 21.5093 5.30344 22.128C5.30344 22.448 5.37277 22.7147 5.51144 22.928C5.6501 23.1307 5.85277 23.232 6.11944 23.232C6.62077 23.232 6.87144 22.8107 6.87144 21.968H8.15144C8.15144 22.6613 7.99144 23.248 7.67144 23.728C7.35144 24.1973 6.8341 24.432 6.11944 24.432C5.40477 24.432 4.87677 24.208 4.53544 23.76C4.1941 23.312 4.02344 22.768 4.02344 22.128C4.02344 21.0827 4.51944 20.2507 5.51144 19.632C6.50344 19.0133 8.0821 18.704 10.2474 18.704H10.8874V19.904H9.75144L12.4074 27.984L15.0474 20H13.9274V18.8H17.4794ZM18.1326 23.04V22H20.7246V28.96H22.1166V30H18.1166V28.96H19.3646V23.04H18.1326ZM20.0046 20.576C19.7699 20.576 19.5779 20.4907 19.4286 20.32C19.2792 20.1493 19.2046 19.9467 19.2046 19.712C19.2046 19.4667 19.2846 19.2533 19.4446 19.072C19.6152 18.8907 19.8179 18.8 20.0526 18.8C20.2872 18.8 20.4792 18.8853 20.6286 19.056C20.7779 19.2267 20.8526 19.4347 20.8526 19.68C20.8526 19.9147 20.7672 20.1227 20.5966 20.304C20.4366 20.4853 20.2392 20.576 20.0046 20.576ZM25.2754 28.96H26.5074V30H22.6834V28.96H23.9154V19.04H22.6834V18H25.2754V25.504L26.2514 25.152L28.1394 23.04H27.5474V22H30.5554V23.04H29.8674L27.3394 25.792L29.8834 29.04H31.0994V29.712C30.8648 29.8507 30.6568 29.9467 30.4754 30C30.2941 30.0533 30.0061 30.08 29.6114 30.08C29.2168 30.08 28.8648 29.8773 28.5554 29.472L26.2514 26.448L25.2754 26.8V28.96ZM31.4216 23.04V22.16L32.6536 22H32.8136C33.1549 21.2 33.3842 20.496 33.5016 19.888H34.1736V22H36.5576V23.04H34.1736V27.952C34.1736 28.3147 34.2322 28.576 34.3496 28.736C34.4776 28.896 34.6909 28.976 34.9896 28.976C35.2882 28.976 35.6882 28.8747 36.1896 28.672L36.7176 29.584C36.1096 29.968 35.4589 30.16 34.7656 30.16C34.0722 30.16 33.5709 29.9787 33.2616 29.616C32.9629 29.2533 32.8136 28.784 32.8136 28.208V23.04H31.4216ZM38.6071 28.992C37.9351 28.2027 37.5991 27.2053 37.5991 26C37.5991 24.7947 37.9351 23.8027 38.6071 23.024C39.2791 22.2347 40.2231 21.84 41.4391 21.84C42.6551 21.84 43.5991 22.2347 44.2711 23.024C44.9431 23.8027 45.2791 24.7947 45.2791 26C45.2791 27.2053 44.9431 28.2027 44.2711 28.992C43.5991 29.7707 42.6551 30.16 41.4391 30.16C40.2231 30.16 39.2791 29.7707 38.6071 28.992ZM39.6151 23.872C39.1777 24.4267 38.9591 25.136 38.9591 26C38.9591 26.864 39.1777 27.5733 39.6151 28.128C40.0524 28.6827 40.6604 28.96 41.4391 28.96C42.2177 28.96 42.8257 28.6827 43.2631 28.128C43.7004 27.5733 43.9191 26.864 43.9191 26C43.9191 25.136 43.7004 24.4267 43.2631 23.872C42.8257 23.3173 42.2177 23.04 41.4391 23.04C40.6604 23.04 40.0524 23.3173 39.6151 23.872ZM48.7479 28.96H50.1399V30H46.1559V28.96H47.3879V23.04H46.1559V22H48.4439L48.6359 22.848C48.9986 22.6453 49.2919 22.4907 49.5159 22.384C49.7399 22.2667 50.0599 22.1493 50.4759 22.032C50.9026 21.904 51.3133 21.84 51.7079 21.84L52.6039 22.08L52.2359 23.392L51.5159 23.2C50.6199 23.2 49.6973 23.424 48.7479 23.872V28.96ZM53.2263 23.04V22H55.8183V28.96H57.2103V30H53.2103V28.96H54.4583V23.04H53.2263ZM55.0983 20.576C54.8636 20.576 54.6716 20.4907 54.5223 20.32C54.373 20.1493 54.2983 19.9467 54.2983 19.712C54.2983 19.4667 54.3783 19.2533 54.5383 19.072C54.709 18.8907 54.9116 18.8 55.1463 18.8C55.381 18.8 55.573 18.8853 55.7223 19.056C55.8716 19.2267 55.9463 19.4347 55.9463 19.68C55.9463 19.9147 55.861 20.1227 55.6903 20.304C55.5303 20.4853 55.333 20.576 55.0983 20.576ZM60.4492 30.16C59.7132 30.16 59.1372 29.952 58.7212 29.536C58.3052 29.1093 58.0972 28.544 58.0972 27.84C58.0972 27.1253 58.3745 26.528 58.9292 26.048C59.4839 25.568 60.3052 25.328 61.3932 25.328H63.1372V24.512C63.1372 23.5307 62.6679 23.04 61.7292 23.04C60.9399 23.04 60.2145 23.136 59.5532 23.328V24.4H58.4332V22.496C58.9132 22.2933 59.4785 22.1333 60.1292 22.016C60.7905 21.8987 61.3399 21.84 61.7772 21.84C62.6305 21.84 63.2972 22.0853 63.7772 22.576C64.2572 23.056 64.4972 23.7013 64.4972 24.512V29.04H65.8092V29.712C65.4145 29.9573 64.9612 30.08 64.4492 30.08C63.9372 30.08 63.5905 29.9947 63.4092 29.824C63.2279 29.6533 63.1372 29.3653 63.1372 28.96C62.3372 29.76 61.4412 30.16 60.4492 30.16ZM60.5932 28.96C61.5105 28.96 62.3585 28.4427 63.1372 27.408V26.384H61.3772C60.7265 26.384 60.2412 26.512 59.9212 26.768C59.6119 27.024 59.4572 27.3493 59.4572 27.744C59.4572 28.128 59.5532 28.4267 59.7452 28.64C59.9372 28.8533 60.2199 28.96 60.5932 28.96ZM15.4014 42.904C15.4014 43.5973 15.2414 44.184 14.9214 44.664C14.6014 45.1333 14.0841 45.368 13.3694 45.368C12.6548 45.368 12.1268 45.144 11.7854 44.696C11.4441 44.248 11.2734 43.704 11.2734 43.064C11.2734 42.0187 11.7694 41.1867 12.7614 40.568C13.7534 39.9493 15.3321 39.64 17.4974 39.64C21.2628 39.64 23.1454 40.728 23.1454 42.904C23.1454 43.992 22.6388 44.76 21.6254 45.208C22.2441 45.4213 22.7348 45.7733 23.0974 46.264C23.4601 46.744 23.6414 47.3253 23.6414 48.008C23.6414 48.9253 23.3161 49.6827 22.6654 50.28C22.0148 50.8667 21.0654 51.16 19.8174 51.16C19.5828 51.16 19.0388 51.1333 18.1854 51.08C17.3321 51.0267 16.6494 51 16.1374 51H14.5854V49.8H16.1374V40.888C14.8361 40.984 13.9134 41.2133 13.3694 41.576C12.8254 41.9387 12.5534 42.4347 12.5534 43.064C12.5534 43.384 12.6228 43.6507 12.7614 43.864C12.9001 44.0667 13.1028 44.168 13.3694 44.168C13.8708 44.168 14.1214 43.7467 14.1214 42.904H15.4014ZM18.2974 45.928V44.728H19.8814C20.4254 44.728 20.8788 44.568 21.2414 44.248C21.6041 43.928 21.7854 43.48 21.7854 42.904C21.7854 42.2 21.4601 41.6827 20.8094 41.352C20.1588 41.0107 19.0548 40.84 17.4974 40.84V49.848C18.8201 49.9227 19.6734 49.96 20.0574 49.96C20.7294 49.96 21.2681 49.784 21.6734 49.432C22.0788 49.0693 22.2814 48.568 22.2814 47.928C22.2814 47.288 22.0734 46.7973 21.6574 46.456C21.2521 46.104 20.7188 45.928 20.0574 45.928H18.2974ZM31.8727 46.456V47.304H26.2247C26.278 48.0827 26.5074 48.7227 26.9127 49.224C27.318 49.7147 27.862 49.96 28.5447 49.96C28.9927 49.96 29.3927 49.912 29.7447 49.816C30.1074 49.72 30.358 49.6347 30.4967 49.56C30.6354 49.4747 30.8274 49.352 31.0727 49.192L31.6647 50.088C30.854 50.8027 29.8407 51.16 28.6247 51.16C27.4087 51.16 26.4754 50.7707 25.8247 49.992C25.1847 49.2027 24.8647 48.2053 24.8647 47C24.8647 45.7947 25.1847 44.8027 25.8247 44.024C26.4754 43.2347 27.3554 42.84 28.4647 42.84C29.5847 42.84 30.4327 43.176 31.0087 43.848C31.5847 44.52 31.8727 45.3893 31.8727 46.456ZM30.5127 46.168C30.4487 45.5173 30.2514 45 29.9207 44.616C29.6007 44.232 29.1367 44.04 28.5287 44.04C27.9314 44.04 27.4407 44.2373 27.0567 44.632C26.6727 45.016 26.4167 45.528 26.2887 46.168H30.5127ZM32.6876 40.04V39H35.2796V49.96H36.6716V51H32.6716V49.96H33.9196V40.04H32.6876ZM37.4063 40.04V39H39.9983V49.96H41.3903V51H37.3903V49.96H38.6383V40.04H37.4063ZM44.6211 51.16C43.8851 51.16 43.3091 50.952 42.8931 50.536C42.4771 50.1093 42.2691 49.544 42.2691 48.84C42.2691 48.1253 42.5464 47.528 43.1011 47.048C43.6557 46.568 44.4771 46.328 45.5651 46.328H47.3091V45.512C47.3091 44.5307 46.8397 44.04 45.9011 44.04C45.1117 44.04 44.3864 44.136 43.7251 44.328V45.4H42.6051V43.496C43.0851 43.2933 43.6504 43.1333 44.3011 43.016C44.9624 42.8987 45.5117 42.84 45.9491 42.84C46.8024 42.84 47.4691 43.0853 47.9491 43.576C48.4291 44.056 48.6691 44.7013 48.6691 45.512V50.04H49.9811V50.712C49.5864 50.9573 49.1331 51.08 48.6211 51.08C48.1091 51.08 47.7624 50.9947 47.5811 50.824C47.3997 50.6533 47.3091 50.3653 47.3091 49.96C46.5091 50.76 45.6131 51.16 44.6211 51.16ZM44.7651 49.96C45.6824 49.96 46.5304 49.4427 47.3091 48.408V47.384H45.5491C44.8984 47.384 44.4131 47.512 44.0931 47.768C43.7837 48.024 43.6291 48.3493 43.6291 48.744C43.6291 49.128 43.7251 49.4267 43.9171 49.64C44.1091 49.8533 44.3917 49.96 44.7651 49.96ZM52.9004 49.96H54.1324V51H50.3084V49.96H51.5404V40.04H50.3084V39H52.9004V46.504L53.8764 46.152L55.7644 44.04H55.1724V43H58.1804V44.04H57.4924L54.9644 46.792L57.5084 50.04H58.7244V50.712C58.4898 50.8507 58.2818 50.9467 58.1004 51C57.9191 51.0533 57.6311 51.08 57.2364 51.08C56.8418 51.08 56.4898 50.8773 56.1804 50.472L53.8764 47.448L52.9004 47.8V49.96Z" fill="black"/>
</g>
</g>
<defs>
<filter id="filter0_d_343_2695" x="0.0234375" y="18" width="69.7856" height="41.16" filterUnits="userSpaceOnUse" color-interpolation-filters="sRGB">
<feFlood flood-opacity="0" result="BackgroundImageFix"/>
<feColorMatrix in="SourceAlpha" type="matrix" values="0 0 0 0 0 0 0 0 0 0 0 0 0 0 0 0 0 0 127 0" result="hardAlpha"/>
<feOffset dy="4"/>
<feGaussianBlur stdDeviation="2"/>
<feComposite in2="hardAlpha" operator="out"/>
<feColorMatrix type="matrix" values="0 0 0 0 0 0 0 0 0 0 0 0 0 0 0 0 0 0 0.25 0"/>
<feBlend mode="normal" in2="BackgroundImageFix" result="effect1_dropShadow_343_2695"/>
<feBlend mode="normal" in="SourceGraphic" in2="effect1_dropShadow_343_2695" result="shape"/>
</filter>
<clipPath id="clip0_343_2695">
<rect width="70" height="70" fill="white"/>
</clipPath>
<clipPath id="clip1_343_2695">
<rect width="70" height="70" fill="white"/>
</clipPath>
</defs>
</svg>
