<svg width="32" height="32" viewBox="0 0 32 32" fill="none" xmlns="http://www.w3.org/2000/svg">
<g clip-path="url(#clip0_343_2660)">
<rect width="32" height="32" fill="#F3FAFD"/>
<g clip-path="url(#clip1_343_2660)">
<mask id="mask0_343_2660" style="mask-type:luminance" maskUnits="userSpaceOnUse" x="0" y="0" width="32" height="32">
<path d="M32 0H0V32H32V0Z" fill="white"/>
</mask>
<g mask="url(#mask0_343_2660)">
<path d="M13.4611 21.1869L15.3545 19.2936C11.7145 16.0536 9.3278 13.8669 9.3278 11.787C9.3278 10.387 10.3945 9.32031 11.7945 9.32031C13.2745 9.32031 13.8478 10.187 15.3678 11.987H16.6078C18.1011 10.2403 18.6478 9.32031 20.1811 9.32031C21.3411 9.32031 22.2478 10.0403 22.5411 11.0803C23.0078 11.027 23.4478 11.0003 23.8745 11.0003C24.3545 11.0003 24.8078 11.0403 25.2478 11.107C24.9278 8.56031 22.8345 6.65364 20.1945 6.65364C20.0345 6.65364 19.8878 6.69364 19.7278 6.70697C19.8878 6.26697 19.9945 5.81364 19.9945 5.32031C19.9945 3.10697 18.2078 1.32031 15.9945 1.32031C13.7811 1.32031 11.9945 3.10697 11.9945 5.32031C11.9945 5.81364 12.1011 6.26697 12.2611 6.70697C12.1011 6.69364 11.9545 6.65364 11.7945 6.65364C8.91447 6.65364 6.66113 8.90697 6.66113 11.787C6.66113 15.0136 9.38113 17.5336 13.4611 21.1869Z" fill="#B1DFF5"/>
<path d="M29.995 21.6403C29.5683 21.4003 29.115 21.2536 28.6617 21.1736C28.755 21.0403 28.8617 20.9336 28.9417 20.8003C30.3817 18.3069 29.555 15.2269 27.0617 13.7869C24.275 12.1736 20.715 13.267 15.5283 14.9869L16.2217 17.5736C20.8483 16.0536 23.9417 15.0669 25.7417 16.1069C26.955 16.8136 27.3417 18.2536 26.6483 19.4803C25.9017 20.7603 24.875 20.8136 22.555 21.2403L21.9283 22.3203C22.7017 24.4803 23.2217 25.4269 22.4483 26.7469C21.7417 27.9603 20.3017 28.3469 19.075 27.6536C18.995 27.6136 18.9283 27.5336 18.8483 27.4803C18.4483 28.3736 17.995 29.1336 17.475 29.7869C17.5683 29.8403 17.6483 29.9069 17.7417 29.9736C20.235 31.4136 23.315 30.5869 24.755 28.0936C24.835 27.9603 24.875 27.8136 24.9417 27.6669C25.235 28.0269 25.5817 28.3469 26.0083 28.5869C27.915 29.6936 30.3683 29.0403 31.475 27.1203C32.5817 25.2003 31.9017 22.7336 29.995 21.6403Z" fill="#B1DFF5"/>
<path d="M16.4214 18.6669C15.4348 23.4403 14.7281 26.6003 12.9281 27.6403C11.7148 28.3469 10.2614 27.9603 9.55477 26.7336C8.8081 25.4536 9.2881 24.5203 10.0748 22.3069L9.46144 21.2269C7.19477 20.8136 6.1281 20.7869 5.3681 19.4669C4.66144 18.2536 5.0481 16.8003 6.27477 16.0936C6.39477 16.0269 6.5281 15.9869 6.66144 15.9469C6.19477 15.2003 5.8081 14.3869 5.5681 13.4803C5.35477 13.5736 5.14144 13.6669 4.9281 13.7869C2.43477 15.2269 1.6081 18.3069 3.0481 20.8003C3.1281 20.9336 3.23477 21.0403 3.3281 21.1736C2.87477 21.2536 2.42144 21.4003 1.99477 21.6403C0.0881093 22.7469 -0.578557 25.1869 0.528109 27.1069C1.63477 29.0269 4.07477 29.6803 5.99477 28.5736C6.42144 28.3336 6.7681 28.0136 7.06144 27.6536C7.1281 27.8003 7.1681 27.9469 7.2481 28.0803C8.6881 30.5736 11.7681 31.4003 14.2614 29.9603C17.0481 28.3469 17.8748 24.7203 18.9948 19.3736L16.4214 18.6669Z" fill="#B1DFF5"/>
</g>
</g>
<g filter="url(#filter0_d_343_2660)">
<path d="M8.33475 9.1V9.625H7.88675L6.42375 14H5.80775L4.35175 9.618C3.86642 9.66933 3.52109 9.772 3.31575 9.926C3.11042 10.0753 3.00775 10.2853 3.00775 10.556C3.00775 10.696 3.03809 10.8127 3.09875 10.906C3.15942 10.9947 3.24809 11.039 3.36475 11.039C3.58409 11.039 3.69375 10.8547 3.69375 10.486H4.25375C4.25375 10.7893 4.18375 11.046 4.04375 11.256C3.90375 11.4613 3.67742 11.564 3.36475 11.564C3.05209 11.564 2.82109 11.466 2.67175 11.27C2.52242 11.074 2.44775 10.836 2.44775 10.556C2.44775 10.0987 2.66475 9.73467 3.09875 9.464C3.53275 9.19333 4.22342 9.058 5.17075 9.058H5.45075V9.583H4.95375L6.11575 13.118L7.27075 9.625H6.78075V9.1H8.33475ZM8.6205 10.955V10.5H9.7545V13.545H10.3635V14H8.6135V13.545H9.1595V10.955H8.6205ZM9.4395 9.877C9.33683 9.877 9.25283 9.83967 9.1875 9.765C9.12216 9.69033 9.0895 9.60167 9.0895 9.499C9.0895 9.39167 9.1245 9.29833 9.1945 9.219C9.26916 9.13967 9.35783 9.1 9.4605 9.1C9.56316 9.1 9.64716 9.13733 9.7125 9.212C9.77783 9.28667 9.8105 9.37767 9.8105 9.485C9.8105 9.58767 9.77316 9.67867 9.6985 9.758C9.6285 9.83733 9.54216 9.877 9.4395 9.877ZM11.7455 13.545H12.2845V14H10.6115V13.545H11.1505V9.205H10.6115V8.75H11.7455V12.033L12.1725 11.879L12.9985 10.955H12.7395V10.5H14.0555V10.955H13.7545L12.6485 12.159L13.7615 13.58H14.2935V13.874C14.1908 13.9347 14.0998 13.9767 14.0205 14C13.9412 14.0233 13.8152 14.035 13.6425 14.035C13.4698 14.035 13.3158 13.9463 13.1805 13.769L12.1725 12.446L11.7455 12.6V13.545ZM14.4344 10.955V10.57L14.9734 10.5H15.0434C15.1928 10.15 15.2931 9.842 15.3444 9.576H15.6384V10.5H16.6814V10.955H15.6384V13.104C15.6384 13.2627 15.6641 13.377 15.7154 13.447C15.7714 13.517 15.8648 13.552 15.9954 13.552C16.1261 13.552 16.3011 13.5077 16.5204 13.419L16.7514 13.818C16.4854 13.986 16.2008 14.07 15.8974 14.07C15.5941 14.07 15.3748 13.9907 15.2394 13.832C15.1088 13.6733 15.0434 13.468 15.0434 13.216V10.955H14.4344ZM17.5781 13.559C17.2841 13.2137 17.1371 12.7773 17.1371 12.25C17.1371 11.7227 17.2841 11.2887 17.5781 10.948C17.8721 10.6027 18.2851 10.43 18.8171 10.43C19.3491 10.43 19.7621 10.6027 20.0561 10.948C20.3501 11.2887 20.4971 11.7227 20.4971 12.25C20.4971 12.7773 20.3501 13.2137 20.0561 13.559C19.7621 13.8997 19.3491 14.07 18.8171 14.07C18.2851 14.07 17.8721 13.8997 17.5781 13.559ZM18.0191 11.319C17.8278 11.5617 17.7321 11.872 17.7321 12.25C17.7321 12.628 17.8278 12.9383 18.0191 13.181C18.2104 13.4237 18.4764 13.545 18.8171 13.545C19.1578 13.545 19.4238 13.4237 19.6151 13.181C19.8064 12.9383 19.9021 12.628 19.9021 12.25C19.9021 11.872 19.8064 11.5617 19.6151 11.319C19.4238 11.0763 19.1578 10.955 18.8171 10.955C18.4764 10.955 18.2104 11.0763 18.0191 11.319ZM22.0147 13.545H22.6237V14H20.8807V13.545H21.4197V10.955H20.8807V10.5H21.8817L21.9657 10.871C22.1244 10.7823 22.2527 10.7147 22.3507 10.668C22.4487 10.6167 22.5887 10.5653 22.7707 10.514C22.9574 10.458 23.1371 10.43 23.3097 10.43L23.7017 10.535L23.5407 11.109L23.2257 11.025C22.8337 11.025 22.4301 11.123 22.0147 11.319V13.545ZM23.974 10.955V10.5H25.108V13.545H25.717V14H23.967V13.545H24.513V10.955H23.974ZM24.793 9.877C24.6903 9.877 24.6063 9.83967 24.541 9.765C24.4757 9.69033 24.443 9.60167 24.443 9.499C24.443 9.39167 24.478 9.29833 24.548 9.219C24.6227 9.13967 24.7113 9.1 24.814 9.1C24.9167 9.1 25.0007 9.13733 25.066 9.212C25.1313 9.28667 25.164 9.37767 25.164 9.485C25.164 9.58767 25.1267 9.67867 25.052 9.758C24.982 9.83733 24.8957 9.877 24.793 9.877ZM27.134 14.07C26.812 14.07 26.56 13.979 26.378 13.797C26.196 13.6103 26.105 13.363 26.105 13.055C26.105 12.7423 26.2264 12.481 26.469 12.271C26.7117 12.061 27.071 11.956 27.547 11.956H28.31V11.599C28.31 11.1697 28.1047 10.955 27.694 10.955C27.3487 10.955 27.0314 10.997 26.742 11.081V11.55H26.252V10.717C26.462 10.6283 26.7094 10.5583 26.994 10.507C27.2834 10.4557 27.5237 10.43 27.715 10.43C28.0884 10.43 28.38 10.5373 28.59 10.752C28.8 10.962 28.905 11.2443 28.905 11.599V13.58H29.479V13.874C29.3064 13.9813 29.108 14.035 28.884 14.035C28.66 14.035 28.5084 13.9977 28.429 13.923C28.3497 13.8483 28.31 13.7223 28.31 13.545C27.96 13.895 27.568 14.07 27.134 14.07ZM27.197 13.545C27.5984 13.545 27.9694 13.3187 28.31 12.866V12.418H27.54C27.2554 12.418 27.043 12.474 26.903 12.586C26.7677 12.698 26.7 12.8403 26.7 13.013C26.7 13.181 26.742 13.3117 26.826 13.405C26.91 13.4983 27.0337 13.545 27.197 13.545ZM7.42563 19.458C7.42563 19.7613 7.35563 20.018 7.21563 20.228C7.07563 20.4333 6.8493 20.536 6.53663 20.536C6.22396 20.536 5.99296 20.438 5.84363 20.242C5.6943 20.046 5.61963 19.808 5.61963 19.528C5.61963 19.0707 5.83663 18.7067 6.27063 18.436C6.70463 18.1653 7.3953 18.03 8.34263 18.03C9.98996 18.03 10.8136 18.506 10.8136 19.458C10.8136 19.934 10.592 20.27 10.1486 20.466C10.4193 20.5593 10.634 20.7133 10.7926 20.928C10.9513 21.138 11.0306 21.3923 11.0306 21.691C11.0306 22.0923 10.8883 22.4237 10.6036 22.685C10.319 22.9417 9.90363 23.07 9.35763 23.07C9.25496 23.07 9.01696 23.0583 8.64363 23.035C8.2703 23.0117 7.97163 23 7.74763 23H7.06863V22.475H7.74763V18.576C7.1783 18.618 6.77463 18.7183 6.53663 18.877C6.29863 19.0357 6.17963 19.2527 6.17963 19.528C6.17963 19.668 6.20996 19.7847 6.27063 19.878C6.3313 19.9667 6.41996 20.011 6.53663 20.011C6.75596 20.011 6.86563 19.8267 6.86563 19.458H7.42563ZM8.69263 20.781V20.256H9.38563C9.62363 20.256 9.82196 20.186 9.98063 20.046C10.1393 19.906 10.2186 19.71 10.2186 19.458C10.2186 19.15 10.0763 18.9237 9.79163 18.779C9.50696 18.6297 9.02396 18.555 8.34263 18.555V22.496C8.9213 22.5287 9.29463 22.545 9.46263 22.545C9.75663 22.545 9.9923 22.468 10.1696 22.314C10.347 22.1553 10.4356 21.936 10.4356 21.656C10.4356 21.376 10.3446 21.1613 10.1626 21.012C9.9853 20.858 9.75196 20.781 9.46263 20.781H8.69263ZM14.6318 21.012V21.383H12.1608C12.1841 21.7237 12.2845 22.0037 12.4618 22.223C12.6391 22.4377 12.8771 22.545 13.1758 22.545C13.3718 22.545 13.5468 22.524 13.7008 22.482C13.8595 22.44 13.9691 22.4027 14.0298 22.37C14.0905 22.3327 14.1745 22.279 14.2818 22.209L14.5408 22.601C14.1861 22.9137 13.7428 23.07 13.2108 23.07C12.6788 23.07 12.2705 22.8997 11.9858 22.559C11.7058 22.2137 11.5658 21.7773 11.5658 21.25C11.5658 20.7227 11.7058 20.2887 11.9858 19.948C12.2705 19.6027 12.6555 19.43 13.1408 19.43C13.6308 19.43 14.0018 19.577 14.2538 19.871C14.5058 20.165 14.6318 20.5453 14.6318 21.012ZM14.0368 20.886C14.0088 20.6013 13.9225 20.375 13.7778 20.207C13.6378 20.039 13.4348 19.955 13.1688 19.955C12.9075 19.955 12.6928 20.0413 12.5248 20.214C12.3568 20.382 12.2448 20.606 12.1888 20.886H14.0368ZM14.9883 18.205V17.75H16.1223V22.545H16.7313V23H14.9813V22.545H15.5273V18.205H14.9883ZM17.0528 18.205V17.75H18.1868V22.545H18.7958V23H17.0458V22.545H17.5918V18.205H17.0528ZM20.2092 23.07C19.8872 23.07 19.6352 22.979 19.4532 22.797C19.2712 22.6103 19.1802 22.363 19.1802 22.055C19.1802 21.7423 19.3015 21.481 19.5442 21.271C19.7869 21.061 20.1462 20.956 20.6222 20.956H21.3852V20.599C21.3852 20.1697 21.1799 19.955 20.7692 19.955C20.4239 19.955 20.1065 19.997 19.8172 20.081V20.55H19.3272V19.717C19.5372 19.6283 19.7845 19.5583 20.0692 19.507C20.3585 19.4557 20.5989 19.43 20.7902 19.43C21.1635 19.43 21.4552 19.5373 21.6652 19.752C21.8752 19.962 21.9802 20.2443 21.9802 20.599V22.58H22.5542V22.874C22.3815 22.9813 22.1832 23.035 21.9592 23.035C21.7352 23.035 21.5835 22.9977 21.5042 22.923C21.4249 22.8483 21.3852 22.7223 21.3852 22.545C21.0352 22.895 20.6432 23.07 20.2092 23.07ZM20.2722 22.545C20.6735 22.545 21.0445 22.3187 21.3852 21.866V21.418H20.6152C20.3305 21.418 20.1182 21.474 19.9782 21.586C19.8429 21.698 19.7752 21.8403 19.7752 22.013C19.7752 22.181 19.8172 22.3117 19.9012 22.405C19.9852 22.4983 20.1089 22.545 20.2722 22.545ZM23.8314 22.545H24.3704V23H22.6974V22.545H23.2364V18.205H22.6974V17.75H23.8314V21.033L24.2584 20.879L25.0844 19.955H24.8254V19.5H26.1414V19.955H25.8404L24.7344 21.159L25.8474 22.58H26.3794V22.874C26.2768 22.9347 26.1858 22.9767 26.1064 23C26.0271 23.0233 25.9011 23.035 25.7284 23.035C25.5558 23.035 25.4018 22.9463 25.2664 22.769L24.2584 21.446L23.8314 21.6V22.545Z" fill="black"/>
</g>
</g>
<defs>
<filter id="filter0_d_343_2660" x="-1.55225" y="8.75" width="35.0312" height="22.32" filterUnits="userSpaceOnUse" color-interpolation-filters="sRGB">
<feFlood flood-opacity="0" result="BackgroundImageFix"/>
<feColorMatrix in="SourceAlpha" type="matrix" values="0 0 0 0 0 0 0 0 0 0 0 0 0 0 0 0 0 0 127 0" result="hardAlpha"/>
<feOffset dy="4"/>
<feGaussianBlur stdDeviation="2"/>
<feComposite in2="hardAlpha" operator="out"/>
<feColorMatrix type="matrix" values="0 0 0 0 0 0 0 0 0 0 0 0 0 0 0 0 0 0 0.25 0"/>
<feBlend mode="normal" in2="BackgroundImageFix" result="effect1_dropShadow_343_2660"/>
<feBlend mode="normal" in="SourceGraphic" in2="effect1_dropShadow_343_2660" result="shape"/>
</filter>
<clipPath id="clip0_343_2660">
<rect width="32" height="32" fill="white"/>
</clipPath>
<clipPath id="clip1_343_2660">
<rect width="32" height="32" fill="white"/>
</clipPath>
</defs>
</svg>
